<svg width="32" height="32" viewBox="0 0 32 32" fill="none" xmlns="http://www.w3.org/2000/svg">
<path d="M16 15.95C13.8 15.95 12 15.25 10.6 13.85C9.2 12.45 8.5 10.65 8.5 8.44995C8.5 6.24995 9.2 4.44995 10.6 3.04995C12 1.64995 13.8 0.949951 16 0.949951C18.2 0.949951 20 1.64995 21.4 3.04995C22.8 4.44995 23.5 6.24995 23.5 8.44995C23.5 10.65 22.8 12.45 21.4 13.85C20 15.25 18.2 15.95 16 15.95ZM0 32V27.3C0 26.0333 0.316667 24.95 0.95 24.05C1.58333 23.15 2.4 22.4666 3.4 22C5.63333 21 7.775 20.25 9.825 19.75C11.875 19.25 13.9333 19 16 19C18.0667 19 20.1167 19.2583 22.15 19.775C24.1833 20.2916 26.3154 21.0365 28.5461 22.0096C29.5894 22.4805 30.4259 23.1633 31.0556 24.058C31.6852 24.9526 32 26.0333 32 27.3V32H0ZM3 29H29V27.3C29 26.7666 28.8417 26.2583 28.525 25.775C28.2083 25.2916 27.8167 24.9333 27.35 24.7C25.2167 23.6666 23.2667 22.9583 21.5 22.575C19.7333 22.1916 17.9 22 16 22C14.1 22 12.25 22.1916 10.45 22.575C8.65 22.9583 6.7 23.6666 4.6 24.7C4.13333 24.9333 3.75 25.2916 3.45 25.775C3.15 26.2583 3 26.7666 3 27.3V29ZM16 12.95C17.3 12.95 18.375 12.525 19.225 11.675C20.075 10.825 20.5 9.74995 20.5 8.44995C20.5 7.14995 20.075 6.07495 19.225 5.22495C18.375 4.37495 17.3 3.94995 16 3.94995C14.7 3.94995 13.625 4.37495 12.775 5.22495C11.925 6.07495 11.5 7.14995 11.5 8.44995C11.5 9.74995 11.925 10.825 12.775 11.675C13.625 12.525 14.7 12.95 16 12.95Z" fill="#CE98E0"/>
</svg>
