<svg width="37" height="41" viewBox="0 0 37 41" fill="none" xmlns="http://www.w3.org/2000/svg">
<path d="M26.5441 31.5C27.4069 31.5 28.1402 31.1833 28.7441 30.55C29.348 29.9166 29.65 29.1686 29.65 28.3059C29.65 27.4431 29.348 26.7098 28.7441 26.1059C28.1402 25.5019 27.4069 25.2 26.5441 25.2C25.6814 25.2 24.9333 25.5019 24.3 26.1059C23.6667 26.7098 23.35 27.4431 23.35 28.3059C23.35 29.1686 23.6667 29.9166 24.3 30.55C24.9333 31.1833 25.6814 31.5 26.5441 31.5ZM26.475 37.75C27.5917 37.75 28.6 37.5166 29.5 37.05C30.4 36.5833 31.1667 35.9166 31.8 35.05C30.9333 34.5833 30.0673 34.2333 29.2019 34C28.3365 33.7666 27.4365 33.65 26.5019 33.65C25.5673 33.65 24.6583 33.7666 23.775 34C22.8917 34.2333 22.0333 34.5833 21.2 35.05C21.8333 35.9166 22.5917 36.5833 23.475 37.05C24.3583 37.5166 25.3583 37.75 26.475 37.75ZM16 41C11.4 39.9333 7.58333 37.325 4.55 33.175C1.51667 29.025 0 24.2666 0 18.9V6.94995L16 0.949951L32 6.94995V20.45C31.5333 20.2166 31.0333 20.0083 30.5 19.825C29.9667 19.6416 29.4667 19.5166 29 19.45V9.04995L16 4.24995L3 9.04995V18.9C3 21.4333 3.40833 23.7666 4.225 25.9C5.04167 28.0333 6.08333 29.9083 7.35 31.525C8.61667 33.1416 10.0167 34.4833 11.55 35.55C13.0833 36.6166 14.5667 37.3833 16 37.85C16.2 38.25 16.5 38.7 16.9 39.2C17.3 39.7 17.6333 40.0833 17.9 40.35C17.6 40.5166 17.2833 40.6416 16.95 40.725C16.6167 40.8083 16.3 40.9 16 41ZM26.625 41C24.0417 41 21.8333 40.075 20 38.225C18.1667 36.375 17.25 34.1833 17.25 31.65C17.25 29.0355 18.1665 26.8068 19.9995 24.9641C21.8325 23.1213 24.0493 22.2 26.65 22.2C29.2167 22.2 31.425 23.1213 33.275 24.9641C35.125 26.8068 36.05 29.0355 36.05 31.65C36.05 34.1833 35.125 36.375 33.275 38.225C31.425 40.075 29.2083 41 26.625 41Z" fill="#CE98E0"/>
</svg>
