<svg width="40" height="44" viewBox="0 0 40 44" fill="none" xmlns="http://www.w3.org/2000/svg">
<path d="M0 38.885V16.3066C0 15.5122 0.177083 14.7596 0.53125 14.0488C0.885417 13.338 1.375 12.7526 2 12.2927L17 1.00348C17.875 0.334495 18.875 0 20 0C21.125 0 22.125 0.334495 23 1.00348L38 12.2927C38.625 12.7526 39.1146 13.338 39.4688 14.0488C39.8229 14.7596 40 15.5122 40 16.3066V38.885C40 40.2648 39.5104 41.446 38.5312 42.4286C37.5521 43.4112 36.375 43.9024 35 43.9024H27.5C26.7917 43.9024 26.1979 43.662 25.7188 43.1812C25.2396 42.7004 25 42.1045 25 41.3937V28.8502C25 28.1394 24.7604 27.5436 24.2812 27.0627C23.8021 26.5819 23.2083 26.3415 22.5 26.3415H17.5C16.7917 26.3415 16.1979 26.5819 15.7188 27.0627C15.2396 27.5436 15 28.1394 15 28.8502V41.3937C15 42.1045 14.7604 42.7004 14.2812 43.1812C13.8021 43.662 13.2083 43.9024 12.5 43.9024H5C3.625 43.9024 2.44792 43.4112 1.46875 42.4286C0.489583 41.446 0 40.2648 0 38.885Z" fill="#FAFAFA"/>
</svg>
