<svg width="38" height="40" viewBox="0 0 38 40" fill="none" xmlns="http://www.w3.org/2000/svg">
<path d="M6.1001 40C4.64176 40 3.40218 39.4896 2.38135 38.4688C1.36051 37.4479 0.850098 36.2083 0.850098 34.75V28.5H7.2001V0L10.1901 3L13.1801 0L16.1701 3L19.1601 0L22.1501 3L25.1501 0L28.1501 3L31.1501 0L34.1501 3L37.1501 0V34.75C37.1501 36.2083 36.6397 37.4479 35.6188 38.4688C34.598 39.4896 33.3584 40 31.9001 40H6.1001ZM31.9001 37C32.5668 37 33.1084 36.7917 33.5251 36.375C33.9418 35.9583 34.1501 35.4167 34.1501 34.75V5H10.2001V28.5H29.6501V34.75C29.6501 35.4167 29.8584 35.9583 30.2751 36.375C30.6918 36.7917 31.2334 37 31.9001 37ZM12.8501 12.9V9.9H24.8501V12.9H12.8501ZM12.8501 19.6V16.6H24.8501V19.6H12.8501ZM29.5001 12.9C29.1001 12.9 28.7501 12.75 28.4501 12.45C28.1501 12.15 28.0001 11.8 28.0001 11.4C28.0001 11 28.1501 10.65 28.4501 10.35C28.7501 10.05 29.1001 9.9 29.5001 9.9C29.9001 9.9 30.2501 10.05 30.5501 10.35C30.8501 10.65 31.0001 11 31.0001 11.4C31.0001 11.8 30.8501 12.15 30.5501 12.45C30.2501 12.75 29.9001 12.9 29.5001 12.9ZM29.5001 19.35C29.1001 19.35 28.7501 19.2 28.4501 18.9C28.1501 18.6 28.0001 18.25 28.0001 17.85C28.0001 17.45 28.1501 17.1 28.4501 16.8C28.7501 16.5 29.1001 16.35 29.5001 16.35C29.9001 16.35 30.2501 16.5 30.5501 16.8C30.8501 17.1 31.0001 17.45 31.0001 17.85C31.0001 18.25 30.8501 18.6 30.5501 18.9C30.2501 19.2 29.9001 19.35 29.5001 19.35ZM6.0501 37H26.6501V31.5H3.8501V34.75C3.8501 35.4167 4.06093 35.9583 4.4826 36.375C4.90426 36.7917 5.42676 37 6.0501 37Z" fill="#CE98E0"/>
</svg>
